<?xml version="1.0" encoding="UTF-8"?>
<svg viewBox="0 0 640 480" xmlns="http://www.w3.org/2000/svg">
 <defs>
  <linearGradient id="a" x1="222.04" x2="551.95" y1="315.26" y2="315.26" gradientTransform="matrix(.22144 -.97518 .97518 .22144 -6.1294 622.84)" gradientUnits="userSpaceOnUse">
   <stop stop-color="#3c3c3c" offset="0"/>
   <stop stop-color="#a6a6a6" offset="1"/>
  </linearGradient>
 </defs>
 <path d="m298.87 217.45c-12.934 3.5896-12.958 3.5819-19.647-6.3366l-6.697-9.9305 11.302-4.0126c11.782-4.183 19.032-0.97672 25.175 11.134 2.2655 4.4662 0.28357 6.2551-10.134 9.1461zm1.0983-70.008c-18.282 9.7254-24.638 11.416-32.673 8.691-14.458-4.9034-14.943-6.313-6.0405-17.59 7.1099-9.0064 10.31-10.119 27.486-9.5524 10.692 0.35254 22.981 0.68796 27.309 0.74524 12.459 0.16492 8.3142 4.7279-16.082 17.706zm-24.942 139.84c-1.5859-0.36014-12.404-6.4741-24.041-13.586-19.281-11.785-21.287-14.107-22.621-26.188l-1.4642-13.256 14.005 3.1818c12.581 2.8583 15.017 5.1059 23.954 22.105 11.786 22.417 14.062 28.628 10.168 27.744zm1.4656-97.372l-11.142 10.283 3.9987 15.762c3.2349 12.751 3.0221 16.109-1.1138 17.58-2.8119 0.99991-6.2659 1.5803-7.6756 1.2897-2.3272-0.47961-10.418-20.934-11.171-28.241-0.17145-1.6628-9.4231-5.618-20.559-8.7894-11.136-3.1713-23.223-8.3474-26.859-11.502-6.4689-5.6131-6.4488-5.8095 0.9339-9.1388 5.6632-2.5539 12.943-1.6651 29.191 3.564l21.646 6.9665 11.847-11.326c12.723-12.164 15.381-12.851 20.186-5.2225 4.0021 6.3537 3.8555 6.6504-9.282 18.775zm-17.207-17.339c-1.4793 0.93182-10.301-1.0007-19.605-4.2945-11.018-3.901-18.018-4.867-20.078-2.7709-3.9187 3.9862-23.072 0.008942-22.031-4.575 1.1736-5.1687 16.535-13.788 22.257-12.489 2.9016 0.6589 9.4344-4.7712 15.065-12.522 9.0264-12.426 10.507-13.195 16.08-8.3595 4.1652 3.6142 4.9921 6.9529 2.5728 10.387-7.3495 10.433-6.8179 14.842 2.1704 18 8.5286 2.9962 10.515 12.249 3.5687 16.624zm-19.92 58.802c-3.261 0.46994-8.7721 0.20898-12.247-0.58002-5.4147-1.2296-6.1288-0.096222-4.9974 7.931 1.5476 10.979-1.5281 15.147-9.794 13.27-4.0598-0.92188-6.2588-5.9275-6.9271-15.768-0.61298-9.0257-3.5923-16.408-7.9662-19.738-3.8428-2.9263-7.8071-9.2797-8.8094-14.119-1.6583-8.0063-1.0674-8.6268 6.5648-6.8938 4.6128 1.0475 11.488 5.1186 15.278 9.0469 4.3999 4.5605 12.156 7.9071 21.457 9.2579 12.698 1.8442 14.489 3.0534 13.968 9.4274-0.35248 4.3127-3.0298 7.6624-6.527 8.1664zm13.5-111.9l-15.932-5.9094-15.233 15.686c-12.823 13.204-26.235 20.68-33.955 18.927-2.437-0.55338 7.1928-20.745 10.568-22.16 1.4933-0.62576 7.9219-6.0502 14.286-12.054l11.571-10.916-3.0656-16.688c-2.4322-13.24-2.0508-17.05 1.8457-18.437 9.1586-3.2614 12.258-0.21996 14.449 14.176 2.0538 13.497 3.181 14.733 18.686 20.484 14.86 5.5115 16.312 6.9496 14.607 14.461-1.8309 8.063-2.4257 8.1441-17.826 2.432zm11.04-28.162c-15.624 3.2361-19.12 0.757-16.32-11.572 2.1359-9.4063 4.3925-11.586 13.628-13.166 12.823-2.1935 12.771-2.245 12.263 12-0.3269 9.1801-1.7891 11.126-9.5706 12.738zm-57.224 185.43c-15.832-5.8722-15.924-5.8532-28.093 5.7799-13.344 12.756-15.756 13.346-20.044 4.8933-2.2693-4.4735-0.44989-8.0609 8.7395-17.232l11.605-11.583-3.9049-16.755c-2.1478-9.2154-5.1072-17.028-6.5765-17.362-1.4694-0.33365-1.4784-5.8616-0.019958-12.284 1.4584-6.4227 3.7701-11.389 5.1372-11.035 6.1417 1.5874 13.862 16.869 17.475 34.59 3.2653 16.015 5.4062 19.656 12.533 21.314 16.661 3.876 22.79 9.0168 20.864 17.499-1.7556 7.7311-2.4932 7.8218-17.716 2.1757zm0.6779 29.388c-3.8532 11.65-5.7878 12.042-17.063 3.4564-5.334-4.0617-7.0153-8.3894-5.606-14.43 3.363-14.415 7.5614-16.205 17.422-7.4268 7.3582 6.5506 8.1953 9.4863 5.2472 18.4zm-3.8561-203.63c-6.7807 5.1413-13.214 13.246-14.296 18.012-1.082 4.765-4.8527 11.073-8.3793 14.018-5.5499 4.6346-6.7094 4.5794-8.6243-0.41058-1.2168-3.1709-1.052-11.028 0.36621-17.46 1.4183-6.4319 0.61835-16.876-1.7775-23.209-5.3486-14.138-4.5124-18.886 3.5304-20.045 4.1109-0.59245 7.5529 2.1154 10.22 8.04l4.0211 8.9331 9.7068-5.6992c9.2342-5.4217 9.8982-5.3541 13.634 1.3869 3.6161 6.5249 2.9507 7.8265-8.4014 16.434zm-24.82 84.841c-4.8829 4.4445-10.298 5.5557-18.261 3.7476-9.1365-2.0747-12.098-4.8931-15.352-14.613-4.0961-12.234-2.9412-15.201 10.314-26.497 8.872-7.5612 27.839 1.0136 30.484 13.781 2.482 11.983 1.3014 15.858-7.1845 23.582zm21.844-109.77c-8.7555 5.1407-10.663 5.2028-12.49 0.40695-6.5968-17.32-6.3364-19.193 5.3333-38.355 15.765-25.888 19.933-29.81 19.954-18.781 0.091003 48.993 0.046814 49.189-12.797 56.73zm-43.262 188.93c-3.8553 0.55554-7.6163-2.4069-10.504-8.2734l-4.4978-9.1387-9.2413 5.4258c-8.2195 4.826-9.8366 4.7369-14.626-0.80615-5.2159-6.0371-4.9653-6.5065 8.0106-15.006 9.074-5.9433 14.131-12.014 15.676-18.82 1.2548-5.5259 4.9739-12.39 8.2647-15.254 5.7942-5.0424 6.0521-4.9569 8.157 2.7053 1.1956 4.3518 1.0767 12.898-0.26416 18.992-1.3409 6.0939-0.35413 15.5 2.1926 20.903 5.6976 12.086 4.7026 18.138-3.1685 19.273zm-22.652 39.429c-7.301 11.662-14.015 21.669-14.92 22.239-3.2134 2.0241-1.3568-52.006 1.9825-57.697 1.868-3.1836 6.7736-7.6877 10.902-10.009 7.1174-4.0025 7.7526-3.6277 12.297 7.2568 5.7356 13.738 6.2429 11.85-10.261 38.21zm24.064-167.87c-7.3324-1.665-13.548-13.141-17.349-32.032l-4.4333-22.034-16.227-3.6846c-15.084-3.4252-16.093-4.272-14.333-12.026 1.779-7.8348 2.9579-8.1013 19.416-4.3894 16.942 3.821 17.876 3.5667 28.193-7.6837 9.2319-10.067 11.446-10.963 16.42-6.6465 7.2051 6.252 7.2516 6.1024-6.4219 20.681l-11.358 12.11 5.7627 20.258c5.1667 18.163 5.3377 36.583 0.32904 35.446zm-19.82 67.446c-2.0293 3.4105-10.227 12.17-18.217 19.465l-14.527 13.264 3.7623 14.83c4.6027 18.142 4.6935 17.732-4.4741 20.25-6.6152 1.8174-7.9204 0.1275-11.386-14.742-3.8356-16.458-4.2354-16.867-19.932-20.432-14.861-3.3745-15.881-4.2394-14.124-11.978 1.7653-7.7743 3.017-8.0862 18.416-4.5895 15.994 3.6317 16.977 3.3221 30.755-9.6819 15.714-14.832 24.249-19.931 30.85-18.432 4.6987 1.0669 4.5665 2.4823-1.1243 12.046zm-1.4594-58.244c-3.7347-0.84805-10.219-5.0834-14.41-9.412-4.4196-4.5651-13.972-9.3124-22.746-11.305-13.147-2.9854-15.044-4.4492-14.489-11.184 0.55829-6.7761 2.1122-7.4145 12.375-5.0842 11.681 2.6525 11.73 2.6128 10.476-8.5235-0.99475-8.8332-0.14716-11.584 4.0266-13.066 9.5139-3.379 13.122-0.38391 13.043 10.827-0.042908 6.0682 4.4597 18.08 10.006 26.693 11.283 17.522 11.758 23.335 1.7184 21.055zm-6.9396 36.215c-1.4681 2.1193-7.5344 5.1162-13.481 6.6596-5.9463 1.5435-15.216 8.0889-20.6 14.546-10.337 12.397-12.158 13.018-18.758 6.3914-3.3625-3.3759-3.0227-5.5852 1.8417-11.973 7.8255-10.277 7.9501-9.6582-2.9796-14.797-6.413-3.0151-9.051-6.4941-8.0999-10.682 1.9765-8.7044 5.7333-9.1723 19.792-2.4657 8.957 4.2729 15.038 5.1236 22.597 3.1615 11.023-2.8611 24.567-1.1883 23.188 2.8638-0.45734 1.3434-2.0327 4.1766-3.5008 6.2959zm-4.7139-19.116c-4.4466 0.4617-16.864-1.6225-27.595-4.6315-18.898-5.2993-19.92-5.1602-32.583 4.4328-9.4034 7.1238-14.568 8.9-18.401 6.328-7.208-4.8374-5.8672-8.3149 7.5164-19.494l11.39-9.5143-4.5237-16.861c-3.9147-14.591-3.7524-17.138 1.2051-18.915 8.8887-3.1854 9.766-2.2889 15.512 15.849l5.3896 17.012 20.688 4.8093c26.402 6.1374 39.615 19.093 21.401 20.984zm15.296-108.04c-3.2017 3.184-5.3399 2.5928-12.52-3.4615-7.599-6.4074-8.157-8.7222-4.5594-18.909 4.7177-13.358 4.2877-13.259 15.725-3.6148 8.8196 7.4368 9.3708 18.013 1.3542 25.985zm-71.717 217.45c-6.5336 1.1548-11.983 1.8148-12.109 1.4667-0.12622-0.34799-0.050781-5.7051 0.1676-11.905 0.34992-9.9293 1.6953-11.609 11.295-14.101 15.93-4.135 18.201-2.5529 15.214 10.6-2.3154 10.196-4.3362 12.13-14.568 13.938zm22.668-169.74c-12.229-0.46298-13.203-1.4063-26.955-26.109-7.8474-14.096-13.582-26.061-12.743-26.589 2.0684-1.3028 42.793 23.279 46.816 28.259 1.766 2.1858 3.7417 8.687 4.3904 14.447 1.1393 10.117 0.74896 10.456-11.508 9.9923zm-22.903 99.713c-7.3991 7.6167-11.48 8.5176-33.298 7.3502-13.676-0.73181-26.501-1.702-28.5-2.156-3.5926-0.81576 33.477-22.957 44.032-26.3 5.9553-1.886 27.628 6.2798 26.745 10.077-0.30048 1.2917-4.341 6.2547-8.9789 11.029zm-19.858-61.119c-12.469 4.6471-16.407 3.4308-23.645-7.303l-6.0521-8.9742 11.597-3.883c11.398-3.8165 11.738-3.7254 19.812 5.3208 4.5186 5.062 8.1076 9.6794 7.9755 10.261-0.13202 0.58151-4.4914 2.6418-9.6874 4.5784z" fill="#fff" stroke="url(#a)" stroke-width="4.1"/>
</svg>
