<?xml version="1.0" encoding="UTF-8"?>
<svg viewBox="0 0 64 64" xmlns="http://www.w3.org/2000/svg" xmlns:xlink="http://www.w3.org/1999/xlink">
 <defs>
  <linearGradient id="h" x1=".25" x2=".525" y1=".080882" y2=".78676">
   <stop stop-color="#d2b3af" offset="0"/>
   <stop stop-color="#3f3329" offset="1"/>
  </linearGradient>
  <linearGradient id="n" x1="1.5974" x2="2.1721" y1="-1.1627" y2="-.26984" xlink:href="#i"/>
  <linearGradient id="m" x1="-.65306" x2=".024234" y1=".35979" y2="1.3122" xlink:href="#i"/>
  <linearGradient id="l" x1=".41534" x2=".59149" y1=".075629" y2=".54552">
   <stop stop-color="#929292" offset="0"/>
   <stop stop-color="#eaeaea" offset=".5"/>
   <stop stop-color="#a7a7a7" offset="1"/>
  </linearGradient>
  <linearGradient id="k" x1=".93651" x2=".039682" y1=".073601" y2=".97059">
   <stop stop-color="#e5d9b0" offset="0"/>
   <stop stop-color="#7d755a" offset=".55"/>
   <stop stop-color="#e5d394" offset="1"/>
  </linearGradient>
  <linearGradient id="i">
   <stop stop-color="#7a714f" offset="0"/>
   <stop stop-color="#bdaf79" offset="1"/>
  </linearGradient>
  <linearGradient id="j" x1=".045455" x2=".92727" y1=".044118" y2=".97794">
   <stop stop-color="#cdc29c" offset="0"/>
   <stop stop-color="#877b4d" offset=".5"/>
   <stop stop-color="#e2d5a7" offset="1"/>
  </linearGradient>
 </defs>
 <g fill-rule="evenodd">
  <path d="m46.75 4.7l-0.2297 0.0984c-0.6604-0.1048-1.4096-0.12491-2.3953 0.03281 0 0-26.25 8.5969-31.5 10.697-5.25 2.1-5.25 5.25-5.25 5.25v31.5c0 2.6496 1.0234 3.8717 2.1 4.5281v0.39375l14.175 4.2 10.073-10.959c4.5862-1.5018 9.0373-3.0714 10.402-3.4125 5.775-2.8 5.25-5.25 5.25-5.25v-8.3672l4.2-4.5609 5.775-19.95-12.6-4.2z" fill="url(#k)"/>
  <path d="m56.725 8.9c4.375-0.7 5.25 1.225 5.25 5.425v31.5s0.525 2.45-5.25 5.25c-4.2 1.05-32.025 10.5-32.025 10.5s-4.725 0.525-4.725-5.25v-31.5s0-3.15 5.25-5.25 31.5-10.675 31.5-10.675z" fill="url(#j)"/>
  <path d="m14.725 58.425s-1.05-1.225-1.05-2.275v-33.6s0.525-3.15 3.15-4.2 33.775-11.9 34.65-11.55l-0.175-0.35" fill="none" stroke="#4c3c2c" stroke-width="1.05"/>
 </g>
 <path d="m37.825 1.025c-0.11157 0-0.19459 0.06649-0.29531 0.09844-1.1842 0.0188-3.3028 0.01358-4.9547 0.42656-2.1 0.525-4.2 1.575-6.825 2.625-2.3273 0.93093-1.665 1.6367-1.4766 1.8047-0.03195 0.10072-0.09844 0.18374-0.09844 0.29531v7.35c0 0.5817 0.4683 1.05 1.05 1.05h1.05c0.5817 0 1.05-0.4683 1.05-1.05v-6.2672c1.0858-1.1191 2.7436-1.4046 4.2-2.1328 1.6332-0.81658 4.0399-0.94402 5.25-0.98438v5.1844c0 0.5817 0.4683 1.05 1.05 1.05h1.05c0.5817 0 1.05-0.4683 1.05-1.05v-7.35c0-0.5817-0.4683-1.05-1.05-1.05h-1.05z" fill="url(#h)" stroke-width=".62"/>
 <g fill-rule="evenodd">
  <path d="m30.825 11.525l3.85 2.8 3.675-1.225-4.725-2.45-2.8 0.875z" fill="url(#l)" stroke="#88724b" stroke-width=".525"/>
  <path d="m19.8 56.85s0.175 2.45 0.7 2.45 0.525 1.05 0.525 1.05l-5.25-1.05v-2.1l4.025-0.35z" fill="#978c63"/>
  <path d="m27.85 16.425l1.925 1.575 3.85-1.225-3.15-1.575h-2.1l-0.525 1.225z" fill="url(#n)"/>
  <path d="m40.275 11.7l1.75 1.925 3.15-1.05-2.625-1.575-2.275 0.7z" fill="url(#m)"/>
 </g>
 <path d="m40.975 2.6c-0.11157 0-0.19459 0.06649-0.29531 0.09844-1.1842 0.0188-3.3028 0.01358-4.9547 0.42656-2.1 0.525-4.2 1.575-6.825 2.625-2.3273 0.93093-1.665 1.6367-1.4766 1.8047-0.03195 0.10072-0.09844 0.18374-0.09844 0.29531v7.35c0 0.5817 0.4683 1.05 1.05 1.05h1.05c0.5817 0 1.05-0.4683 1.05-1.05v-6.2672c1.0858-1.1191 2.7436-1.4046 4.2-2.1328 1.6332-0.81658 4.0399-0.94402 5.25-0.98437v5.1844c0 0.5817 0.4683 1.05 1.05 1.05h1.05c0.5817 0 1.05-0.4683 1.05-1.05v-7.35c0-0.5817-0.4683-1.05-1.05-1.05h-1.05z" fill="url(#h)" stroke-width=".62"/>
</svg>
