<?xml version="1.0" encoding="UTF-8"?>
<!DOCTYPE svg  PUBLIC '-//W3C//DTD SVG 1.1//EN'  'http://www.w3.org/Graphics/SVG/1.1/DTD/svg11.dtd'>
<svg enable-background="new 0 0 30.75 40.25" version="1.1" viewBox="0 0 30.75 40.25" xml:space="preserve" xmlns="http://www.w3.org/2000/svg" xmlns:xlink="http://www.w3.org/1999/xlink">
<symbol id="bb" viewBox="0 -10.5 12.3 10.5">
		<path d="m10.75 0c1.033-1.2 1.55-2.583 1.55-4.15 0-1.733-0.617-3.233-1.85-4.5-1.233-1.233-2.717-1.85-4.45-1.85-1.367 0-2.617 0.417-3.75 1.25-1.1 0.8-1.85 1.833-2.25 3.1 1.267-1.433 2.85-2.15 4.75-2.15 1.733 0 3.217 0.617 4.45 1.85s1.85 2.717 1.85 4.45c0 0.667-0.1 1.333-0.3 2z" clip-rule="evenodd" fill-rule="evenodd"/>
</symbol>
<symbol id="az" viewBox="-6.3 -15.25 12.65 17.25">
				<g clip-rule="evenodd" fill-rule="evenodd">
					<linearGradient id="al" x1="-2.1997" x2="2.3003" y1="-2.0249" y2="-2.0249" gradientUnits="userSpaceOnUse">
						<stop stop-color="#ADADAD" offset=".098"/>
						<stop stop-color="#B8B8B8" offset=".1255"/>
						<stop stop-color="#C5C5C5" offset=".1686"/>
						<stop stop-color="#C9C9C9" offset=".2078"/>
						<stop stop-color="#6B6B6B" offset=".7373"/>
						<stop stop-color="#828282" offset="1"/>
					</linearGradient>
					<path d="m-2.2 0.1l0.35 0.85c0.4 0.566 0.967 0.9 1.7 1v0.05h0.35v-0.05c0.767-0.1 1.35-0.434 1.75-1 0.2-0.3 0.317-0.583 0.35-0.85v-6.15h-4.5v6.15z" fill="url(#al)"/>
						<radialGradient id="ar" cx=".3003" cy="-6.8999" r="5.5875" gradientTransform="matrix(1 0 0 -1.5973 0 -17.922)" gradientUnits="userSpaceOnUse">
						<stop stop-opacity="0" offset=".6392"/>
						<stop stop-color="#1C1C1C" offset="1"/>
					</radialGradient>
					<path d="m-2.2 0.1l0.35 0.85c0.4 0.566 0.967 0.9 1.7 1v0.05h0.35v-0.05c0.767-0.1 1.35-0.434 1.75-1 0.2-0.3 0.317-0.583 0.35-0.85v-6.15h-4.5v6.15z" fill="url(#ar)"/>
				</g>
						<radialGradient id="as" cx="-1.1997" cy="-7.0498" r="8.8125" gradientTransform="matrix(1 0 0 -1 0 -14.1)" gradientUnits="userSpaceOnUse">
						<stop stop-color="#DDB8B5" offset="0"/>
						<stop stop-color="#BD574C" offset=".2196"/>
						<stop stop-color="#A94E45" offset=".3843"/>
						<stop stop-color="#7C3A33" offset=".7961"/>
						<stop stop-color="#6A322C" offset="1"/>
					</radialGradient>
					<path d="m6.351-8.9c0-1.733-0.617-3.233-1.85-4.5-1.233-1.233-2.717-1.85-4.45-1.85s-3.233 0.617-4.5 1.85c-1.233 1.233-1.85 2.733-1.85 4.5 0 1.733 0.617 3.217 1.85 4.45 1.267 1.233 2.767 1.85 4.5 1.85s3.216-0.617 4.449-1.85c1.234-1.233 1.851-2.717 1.851-4.45z" clip-rule="evenodd" fill="url(#as)" fill-rule="evenodd"/>
						<use transform="translate(-5.9502 -4.75)" y="-10.5" width="12.3" height="10.5" enable-background="new" opacity=".2383" xlink:href="#bb"/>
</symbol>
<symbol id="ba" viewBox="-15.351 -25.258 30.763 40.273">
			<g clip-rule="evenodd" fill-rule="evenodd">
					<radialGradient id="at" cx="4.0996" cy="-8.9063" r="8.7291" gradientTransform="matrix(1 0 0 -1 0 -17.812)" gradientUnits="userSpaceOnUse">
					<stop stop-opacity=".149" offset=".0627"/>
					<stop stop-opacity=".149" offset=".2196"/>
				</radialGradient>
				<path d="m13.8-5.85l1 3.1v-2c0-1-0.467-2.283-1.4-3.85-0.333-0.533-0.9-1.15-1.7-1.85-0.066-0.066-0.75-0.617-2.05-1.65-0.8-0.7-1.383-1.2-1.75-1.5-0.667-0.5-1.284-0.8-1.85-0.9-2.8-0.5-5.184-0.667-7.15-0.5-1.233 0.1-2.5 0.583-3.8 1.45l-1.45 1.225c0.37-0.159 1.12-0.467 2.25-0.925 1.433-0.567 2.533-0.867 3.3-0.9 0.534 0 1.684 0.05 3.45 0.15 1.566 0 3.117 0.433 4.65 1.3 0.633 0.333 1.667 1.067 3.1 2.2 0.867 0.7 1.9 2.083 3.1 4.15l0.3 0.5z" fill="url(#at)"/>
					<radialGradient id="au" cx="12.25" cy="7.25" r="3.8625" gradientTransform="matrix(1 0 0 -1 0 14.5)" gradientUnits="userSpaceOnUse">
					<stop stop-opacity=".149" offset=".0627"/>
					<stop stop-opacity=".149" offset=".2196"/>
				</radialGradient>
				<path d="m14.4 8.4c0.6-0.8 0.9-1.383 0.9-1.75 0-0.133 0.033-0.683 0.1-1.65 0.033-1.033 0-1.783-0.1-2.25l-0.2 0.55c-0.6 1.833-1.283 3.367-2.05 4.6-0.467 0.7-1.017 1.35-1.65 1.95-0.7 0.667-1.067 1.017-1.1 1.05-0.167 0.2-0.4 0.4-0.7 0.6l-0.45 0.25 1.65-0.65c1.133-0.467 1.8-0.833 2-1.1 0.133-0.133 0.367-0.35 0.7-0.65 0.333-0.267 0.633-0.583 0.9-0.95z" fill="url(#au)"/>
					<radialGradient id="av" cx="-11.9" cy="3.2002" r="6.193" gradientTransform="matrix(1 0 0 -1 0 6.4004)" gradientUnits="userSpaceOnUse">
					<stop stop-opacity=".149" offset=".0627"/>
					<stop stop-opacity=".149" offset=".2196"/>
				</radialGradient>
				<path d="m-10.7 11c0.833 0.167 1.583 0.25 2.25 0.25-0.833-0.067-1.717-0.517-2.65-1.35-0.3-0.267-0.85-1.167-1.65-2.7-0.934-1.8-1.417-3.15-1.45-4.05-0.066-0.767-0.15-1.45-0.25-2.05-0.1-0.467-0.15-0.833-0.15-1.1v-2.25c0.1-0.667 0.35-1.533 0.75-2.6-0.233 0.367-0.483 0.883-0.75 1.55-0.5 1.267-0.75 2.583-0.75 3.95 0 1.7 0.017 2.767 0.051 3.2 0.033 0.533 0.149 1 0.35 1.4 0.3 0.867 0.566 1.583 0.8 2.15 0.4 1.067 0.75 1.733 1.05 2 0.267 0.2 0.6 0.517 1 0.95 0.432 0.333 0.899 0.55 1.399 0.65z" fill="url(#av)"/>
					<radialGradient id="aw" cx=".6499" cy="14.45" r="2.25" gradientTransform="matrix(1 0 0 -1 0 28.9)" gradientUnits="userSpaceOnUse">
					<stop stop-opacity=".149" offset=".0627"/>
					<stop stop-opacity=".149" offset=".2196"/>
				</radialGradient>
				<path d="m1.65 14.4c-0.767 0.1-1.367 0.133-1.8 0.1-1.3 0-2.083 0.017-2.35 0.05 0.433 0.367 1.35 0.517 2.75 0.45 0.4 0 0.983-0.2 1.75-0.6 0.099-0.054 0.198-0.104 0.3-0.15l-0.65 0.15z" fill="url(#aw)"/>
					<radialGradient id="ax" cx="-7.9502" cy="-11.3" r="2.8252" gradientTransform="matrix(1 0 0 -1 0 -22.6)" gradientUnits="userSpaceOnUse">
					<stop stop-opacity=".149" offset=".0627"/>
					<stop stop-opacity=".149" offset=".2196"/>
				</radialGradient>
				<path d="m-9.5-12.1c-0.067 0.1-0.35 0.75-0.85 1.95-0.367 0.667-0.534 1.217-0.5 1.65 0.133-0.133 0.267-0.333 0.4-0.6 0.133-0.2 0.483-0.533 1.05-1 1.333-1.066 2.184-1.867 2.55-2.4l1.75-1.6c-1.3 0.333-2.1 0.55-2.4 0.65-0.934 0.333-1.6 0.783-2 1.35z" fill="url(#ax)"/>
					<radialGradient id="ay" cx="6.1499" cy="-12.85" r="2.6" gradientTransform="matrix(1 0 0 -1 0 -25.7)" gradientUnits="userSpaceOnUse">
					<stop stop-opacity=".149" offset=".0627"/>
					<stop stop-opacity=".149" offset=".2196"/>
				</radialGradient>
				<path d="m8.05-12l1.6 0.25c-0.367-0.533-0.584-0.85-0.65-0.95-0.233-0.233-0.55-0.4-0.95-0.5-0.566-0.1-0.983-0.2-1.25-0.3l-1-0.25c-1.767-0.267-2.816-0.267-3.15 0 0.1 0.1 0.283 0.167 0.55 0.2 0.133 0 0.317 0.017 0.55 0.05l1.7 0.5c1.433 0.467 2.3 0.8 2.6 1z" fill="url(#ay)"/>
					<radialGradient id="bc" cx="3.6997" cy="-.75" r="11.838" gradientTransform="matrix(1 0 0 -1 0 -1.5)" gradientUnits="userSpaceOnUse">
					<stop stop-color="#fff" stop-opacity=".149" offset=".2196"/>
					<stop stop-color="#fff" stop-opacity=".149" offset=".5137"/>
				</radialGradient>
				<path d="m-5-11.9c-0.767 0.3-1.717 1.017-2.85 2.15l10.25 18.75c0 0.5 0.333 0.983 1 1.45 0.533 0.333 1.1 0.566 1.7 0.7 1.267 0.333 2.317 0.333 3.15 0 2.267-0.933 4.15-2.733 5.65-5.4 0.8-1.267 1.216-2.417 1.25-3.45l0.15-3.3c0-1.2-0.083-2.033-0.25-2.5l-0.35-0.75c-0.1-0.133-0.2-0.217-0.3-0.25-0.2-0.033-0.317-0.067-0.35-0.1-0.633-0.267-0.983-0.6-1.05-1v-0.4c0.166-0.199 0.249-0.283 0.25-0.25 0-0.267-0.15-0.567-0.45-0.9-0.067-0.167-0.1-0.45-0.1-0.85-0.1-0.233-0.35-0.5-0.75-0.8-0.133-0.133-0.75-0.567-1.85-1.3-0.767-0.767-1.383-1.316-1.85-1.65-0.567-0.433-1.55-0.75-2.95-0.95-0.733-0.1-1.9-0.15-3.5-0.15-1.434 0-2.5 0.033-3.2 0.1-1.134 0.1-2.333 0.383-3.6 0.85z" fill="url(#bc)"/>
					<radialGradient id="ac" cx="-6.5503" cy="12.75" r="3.3375" gradientTransform="matrix(1 0 0 -1 0 25.5)" gradientUnits="userSpaceOnUse">
					<stop stop-color="#fff" stop-opacity=".149" offset=".2196"/>
					<stop stop-color="#fff" stop-opacity=".149" offset=".5137"/>
				</radialGradient>
				<path d="m-3.95 14.65l1.75-0.65c-0.667 0.033-1.15 0.033-1.45 0-0.5-0.033-0.933-0.167-1.3-0.4-0.333-0.2-0.583-0.35-0.75-0.45-0.267-0.133-0.517-0.217-0.75-0.25-1.633-0.2-3.1-0.9-4.4-2.1-0.034 0.2 0.066 0.434 0.3 0.7 0.133 0.133 0.333 0.317 0.6 0.55 0.333 0.367 0.833 0.767 1.5 1.2 1.367 0.933 2.867 1.4 4.5 1.4z" fill="url(#ac)"/>
					<radialGradient id="ad" cx=".5996" cy="14.15" r="1.8998" gradientTransform="matrix(1 0 0 -1 0 28.3)" gradientUnits="userSpaceOnUse">
					<stop stop-color="#fff" stop-opacity=".149" offset=".2196"/>
					<stop stop-color="#fff" stop-opacity=".149" offset=".5137"/>
				</radialGradient>
				<path d="m1.15 14.4l2.15-0.65-3 0.1h-1.2c-0.6 0.033-1 0.133-1.2 0.3 0.3 0.233 0.816 0.35 1.55 0.35 0.433 0 1-0.033 1.7-0.1z" fill="url(#ad)"/>
					<radialGradient id="ae" cx="6.5996" cy="13.1" r=".9758" gradientTransform="matrix(1 0 0 -1 0 26.199)" gradientUnits="userSpaceOnUse">
					<stop stop-color="#fff" stop-opacity=".149" offset=".2196"/>
					<stop stop-color="#fff" stop-opacity=".149" offset=".5137"/>
				</radialGradient>
				<path d="m6.3 13.25l1.6-0.6c-0.467-0.033-0.95 0-1.45 0.1-0.667 0.167-1.066 0.417-1.2 0.75 0.4 0.133 0.75 0.05 1.05-0.25z" fill="url(#ae)"/>
					<radialGradient id="af" cx="-10.55" cy="10.35" r=".6875" gradientTransform="matrix(1 0 0 -1 0 20.7)" gradientUnits="userSpaceOnUse">
					<stop stop-color="#fff" stop-opacity=".149" offset=".2196"/>
					<stop stop-color="#fff" stop-opacity=".149" offset=".5137"/>
				</radialGradient>
				<path d="m-10.35 11l0.5-0.75c-0.667-0.467-1.117-0.667-1.35-0.6-0.066 0.233 0 0.5 0.2 0.8s0.417 0.483 0.65 0.55z" fill="url(#af)"/>
					<radialGradient id="ag" cx="14.05" cy="6.1499" r="1.8625" gradientTransform="matrix(1 0 0 -1 0 12.3)" gradientUnits="userSpaceOnUse">
					<stop stop-opacity=".149" offset=".0627"/>
					<stop stop-opacity=".149" offset=".2196"/>
				</radialGradient>
				<path d="m13.8 6.25c0 0.4-0.083 0.817-0.25 1.25-0.3 0.6-0.434 0.983-0.4 1.15 0.333 0 0.65-0.217 0.95-0.65 0.267-0.367 0.417-0.733 0.45-1.1 0-0.367 0.066-0.917 0.2-1.65 0.1-0.7 0.15-1.233 0.15-1.6l-1.1 2.6z" fill="url(#ag)"/>
				<path d="m14 0.25c0-3.533-1.434-6.65-4.3-9.35-2.8-2.7-5.783-3.917-8.95-3.65-3.833 0.3-7 1.517-9.5 3.65-2.667 2.3-4 5.184-4 8.65 0 3.6 1.333 6.784 4 9.55 2.7 2.767 5.866 4.15 9.5 4.15 3.667 0 6.783-1.267 9.35-3.8 2.6-2.533 3.9-5.6 3.9-9.2z" fill="#262626"/>
					<linearGradient id="ah" x1="1.5762" x2="26.076" y1="-16347" y2="-16347" gradientTransform="matrix(4.0816e-5 -1 1 -.001 16348 -2.1709)" gradientUnits="userSpaceOnUse">
					<stop stop-color="#636363" offset="0"/>
					<stop stop-color="#383838" offset="1"/>
				</linearGradient>
				<path d="m13 0.2c0-3.3-1.3-6.217-3.9-8.75-2.566-2.467-5.3-3.583-8.2-3.35-3.467 0.267-6.35 1.383-8.65 3.35-2.467 2.133-3.7 4.816-3.7 8.05 0 3.367 1.217 6.333 3.65 8.9 2.467 2.567 5.367 3.85 8.7 3.85s6.183-1.183 8.55-3.55c2.366-2.333 3.55-5.167 3.55-8.5z" fill="url(#ah)"/>
					<linearGradient id="ai" x1="1.6006" x2="23.251" y1="-16347" y2="-16347" gradientTransform="matrix(4.6189e-5 -1 1 -.001 16348 -2.1709)" gradientUnits="userSpaceOnUse">
					<stop stop-color="#363636" offset="0"/>
					<stop stop-color="#3B3B3B" offset="1"/>
				</linearGradient>
				<path d="m-9.45-2.5c0.333-2.9 1.15-5.1 2.45-6.6-2.967 2.133-4.45 5-4.45 8.6 0 3.367 1.217 6.333 3.65 8.9 2.467 2.567 5.367 3.85 8.7 3.85 2.333 0 4.483-0.617 6.45-1.85 1.9-1.233 3.35-2.85 4.35-4.85-1.133 1.4-2.65 2.633-4.55 3.7-2.034 1.133-3.934 1.7-5.7 1.7-3.233 0-5.95-1.35-8.15-4.05-2.2-2.733-3.117-5.867-2.75-9.4z" fill="url(#ai)"/>
					<linearGradient id="aj" x1="6.8374" x2="22.512" y1="-16346" y2="-16346" gradientTransform="matrix(6.3796e-5 -1 1 -.001 16347 -2.1714)" gradientUnits="userSpaceOnUse">
					<stop stop-color="#7A7A7A" offset="0"/>
					<stop stop-color="#696969" offset="1"/>
				</linearGradient>
				<path d="m9.1-0.65c0-2.1-0.833-3.95-2.5-5.55-1.634-1.6-3.384-2.333-5.25-2.2-2.234 0.167-4.083 0.9-5.55 2.2-1.566 1.367-2.35 3.083-2.35 5.15 0 2.133 0.784 4.017 2.35 5.65 1.566 1.667 3.417 2.5 5.55 2.5 2.134 0 3.95-0.75 5.45-2.25 1.533-1.533 2.3-3.367 2.3-5.5z" fill="url(#aj)"/>
					<linearGradient id="ak" x1="7.3872" x2="22.062" y1="-16346" y2="-16346" gradientTransform="matrix(6.8143e-5 -1 1 -.001 16347 -2.1709)" gradientUnits="userSpaceOnUse">
					<stop stop-color="#363636" offset="0"/>
					<stop stop-color="#4A4A4A" offset="1"/>
				</linearGradient>
				<path d="m8.25-0.65c0-1.967-0.767-3.7-2.3-5.2-1.467-1.5-3.05-2.183-4.75-2.05-2.033 0.167-3.733 0.85-5.1 2.05-1.433 1.267-2.15 2.867-2.15 4.8 0 2.033 0.717 3.8 2.15 5.3 1.433 1.567 3.133 2.35 5.1 2.35 1.934 0 3.6-0.717 5-2.15 1.366-1.4 2.05-3.1 2.05-5.1z" fill="url(#ak)"/>
				<path d="m3.25 9.5c0-0.467-0.184-0.867-0.55-1.2-0.4-0.333-0.867-0.5-1.4-0.5s-0.984 0.167-1.35 0.5c-0.4 0.333-0.6 0.733-0.6 1.2 0 0.433 0.2 0.817 0.6 1.15 0.367 0.333 0.817 0.5 1.35 0.5s1-0.167 1.4-0.5c0.366-0.3 0.55-0.683 0.55-1.15z" fill="#363636"/>
					<radialGradient id="am" cx="-3.479" cy="-16345" r="2.475" gradientTransform="matrix(.00020202 -1 -1.1616 .00020202 -18985 10.724)" gradientUnits="userSpaceOnUse">
					<stop stop-color="#BDBDBD" offset="0"/>
					<stop stop-color="#414445" offset="1"/>
				</radialGradient>
				<path d="m3 9.45c0-0.4-0.167-0.733-0.5-1-0.3-0.267-0.684-0.4-1.15-0.4s-0.866 0.133-1.2 0.4c-0.3 0.267-0.45 0.6-0.45 1s0.15 0.733 0.45 1c0.333 0.267 0.733 0.4 1.2 0.4s0.85-0.133 1.15-0.4c0.333-0.267 0.5-0.6 0.5-1z" fill="url(#am)"/>
				<polygon points="2.7 9.35 0.25 8.75 0.05 9.3 2.5 9.95" fill="#C3C4C4"/>
					<radialGradient id="an" cx="2994.3" cy="1776.5" r="1.2642" gradientTransform="matrix(.969 .2472 .0593 -.178 -3005.5 -414.6)" gradientUnits="userSpaceOnUse">
					<stop stop-color="#7F8284" offset="0"/>
					<stop stop-color="#313233" offset="1"/>
				</radialGradient>
				<polygon points="2.7 9.45 0.2 8.8 0.05 9.3 2.5 9.95" fill="url(#an)"/>
				<path d="m3.25-10.35c0-0.467-0.184-0.85-0.55-1.15-0.4-0.333-0.867-0.5-1.4-0.5s-0.983 0.167-1.35 0.5c-0.4 0.333-0.6 0.717-0.6 1.15 0 0.467 0.2 0.867 0.6 1.2 0.366 0.3 0.817 0.45 1.35 0.45 0.566 0 1.033-0.15 1.4-0.45 0.366-0.333 0.55-0.733 0.55-1.2z" fill="#363636"/>
					<radialGradient id="ao" cx="16.321" cy="-16345" r="2.475" gradientTransform="matrix(.00020202 -1 -1.1616 .00020202 -18985 10.724)" gradientUnits="userSpaceOnUse">
					<stop stop-color="#BDBDBD" offset="0"/>
					<stop stop-color="#414445" offset="1"/>
				</radialGradient>
				<path d="m3-10.35c0-0.4-0.167-0.75-0.5-1.05-0.3-0.267-0.684-0.4-1.15-0.4s-0.866 0.133-1.2 0.4c-0.3 0.3-0.45 0.65-0.45 1.05 0 0.367 0.15 0.7 0.45 1 0.333 0.267 0.733 0.4 1.2 0.4 0.434 0 0.817-0.133 1.15-0.4 0.333-0.3 0.5-0.633 0.5-1z" fill="url(#ao)"/>
				<polygon points="1.9 -9.3 1.55 -11.55 0.9 -11.5 1.25 -9.25" fill="#C3C4C4"/>
					<radialGradient id="ap" cx="15495" cy="1161.9" r="1.1385" gradientTransform="matrix(.1537 .9881 .2196 -.022 -2635.4 -15295)" gradientUnits="userSpaceOnUse">
					<stop stop-color="#7F8284" offset="0"/>
					<stop stop-color="#313233" offset="1"/>
				</radialGradient>
				<polygon points="1.8 -9.3 1.45 -11.55 0.9 -11.5 1.25 -9.25" fill="url(#ap)"/>
				<path d="m5.35-0.75c0-1.067-0.433-2.033-1.3-2.9-0.833-0.8-1.717-1.167-2.65-1.1-1.133 0.067-2.067 0.433-2.8 1.1-0.8 0.7-1.2 1.6-1.2 2.7s0.4 2.083 1.2 2.95c0.767 0.867 1.7 1.3 2.8 1.3 1.066 0 2-0.4 2.8-1.2 0.766-0.767 1.15-1.717 1.15-2.85z" fill="#1C1C1C"/>
			</g>
			<use transform="translate(3.6001 -11.15)" x="-8.178" y="-14.108" width="16.411" height="28.206" xlink:href="#bd"/>
			<use transform="translate(1.3999 -3)" x="-6.3" y="-15.25" width="12.65" height="17.25" xlink:href="#az"/>
</symbol>
<symbol id="bd" viewBox="-8.178 -14.108 16.411 28.206">
					<radialGradient id="aq" cx="1259.4" cy="1090.5" r="7.9952" gradientTransform="matrix(.9896 .1437 .255 -1.7556 -1524.4 1733.4)" gradientUnits="userSpaceOnUse">
					<stop stop-color="#1C1C1C" stop-opacity=".7373" offset="0"/>
					<stop stop-color="#121212" stop-opacity=".4627" offset=".3294"/>
					<stop stop-opacity="0" offset="1"/>
				</radialGradient>
				<path d="m7.95 1.15c0.567-3.866 0.283-7.283-0.85-10.25-1.167-2.967-2.833-4.617-5-4.95-2.2-0.333-4.267 0.767-6.2 3.3-1.967 2.5-3.233 5.7-3.8 9.6-0.566 3.867-0.267 7.284 0.9 10.251 1.134 2.966 2.8 4.617 5 4.95 2.167 0.3 4.233-0.8 6.2-3.3 1.967-2.534 3.217-5.734 3.75-9.601z" clip-rule="evenodd" fill="url(#aq)" fill-rule="evenodd"/>
</symbol>
<use transform="matrix(1 0 0 -1 15.35 15)" x="-15.351" y="-25.258" width="30.763" height="40.273" xlink:href="#ba"/>
</svg>
